<?xml version="1.0" encoding="UTF-8"?>
<!DOCTYPE svg PUBLIC "-//W3C//DTD SVG 1.1//EN" "http://www.w3.org/Graphics/SVG/1.1/DTD/svg11.dtd">
<!-- Creator: CorelDRAW 2021 (64-Bit) -->
<svg xmlns="http://www.w3.org/2000/svg" xml:space="preserve" width="7.08662in" height="7.08662in" version="1.1" style="shape-rendering:geometricPrecision; text-rendering:geometricPrecision; image-rendering:optimizeQuality; fill-rule:evenodd; clip-rule:evenodd"
viewBox="0 0 7086.63 7086.63"
 xmlns:xlink="http://www.w3.org/1999/xlink"
 xmlns:xodm="http://www.corel.com/coreldraw/odm/2003">
 <defs>
  <style type="text/css">
   <![CDATA[
    .fil0 {fill:#FEFEFE}
   ]]>
  </style>
 </defs>
 <g id="Layer_x0020_1">
  <metadata id="CorelCorpID_0Corel-Layer"/>
  <path class="fil0" d="M3543.31 0c1956.91,0 3543.31,1586.39 3543.31,3543.31 0,1956.91 -1586.39,3543.31 -3543.31,3543.31 -1956.91,0 -3543.31,-1586.39 -3543.31,-3543.31 0,-1956.91 1586.39,-3543.31 3543.31,-3543.31zm218.4 1930.98l2496.22 2496.21c120.76,120.76 120.76,316.04 0,435.52l-291.63 291.63c-120.76,120.76 -314.76,120.76 -435.52,0l-1987.46 -1977.19 -1987.46 1978.47c-120.76,119.48 -314.76,119.48 -435.52,0l-291.63 -291.63c-120.76,-120.76 -120.76,-316.04 0,-435.52l2496.22 -2497.5c120.76,-119.48 316.04,-119.48 436.8,0l-0.02 0.01z"/>
 </g>
</svg>
