<?xml version="1.0" encoding="UTF-8"?>
<!DOCTYPE svg PUBLIC "-//W3C//DTD SVG 1.1//EN" "http://www.w3.org/Graphics/SVG/1.1/DTD/svg11.dtd">
<!-- Creator: CorelDRAW 2021 (64-Bit) -->
<svg xmlns="http://www.w3.org/2000/svg" xml:space="preserve" width="22.7371in" height="6.00581in" version="1.1" style="shape-rendering:geometricPrecision; text-rendering:geometricPrecision; image-rendering:optimizeQuality; fill-rule:evenodd; clip-rule:evenodd"
viewBox="0 0 85796.39 22662.39"
 xmlns:xlink="http://www.w3.org/1999/xlink"
 xmlns:xodm="http://www.corel.com/coreldraw/odm/2003">
 <defs>
  <style type="text/css">
   <![CDATA[
    .fil2 {fill:#FEFEFE;fill-rule:nonzero}
    .fil0 {fill:#FF3399;fill-rule:nonzero}
    .fil1 {fill:url(#id0);fill-rule:nonzero}
   ]]>
  </style>
  <radialGradient id="id0" gradientUnits="userSpaceOnUse" gradientTransform="matrix(1.2052 -0.0516167 0.051449 1.20124 -2916 -1694)" cx="11368.52" cy="11331.2" r="8506.46" fx="11368.52" fy="11331.2">
   <stop offset="0" style="stop-opacity:1; stop-color:#570A32"/>
   <stop offset="1" style="stop-opacity:1; stop-color:#FA3FFA"/>
  </radialGradient>
 </defs>
 <g id="Layer_x0020_1">
  <metadata id="CorelCorpID_0Corel-Layer"/>
  <g id="_2134131729568">
   <path class="fil0" d="M10065.55 7914.33c-1354.88,524.37 -2318.73,1841.28 -2318.73,3379.08 0,469.49 89.88,918.45 253.28,1330.51 726.01,75.71 1430.58,303.31 2065.45,669.53l0 0.46 0 -893.05c-253.58,-298.37 -406.67,-684.95 -406.67,-1107.5 0,-422.28 153.09,-808.86 406.67,-1107.3l0 -2271.73zm2605.5 6758.45c1355.49,-524.22 2319.25,-1841.32 2319.25,-3379.37 0,-1538.07 -963.75,-2855.23 -2319.25,-3379.37l0 2270.72c254.41,298.58 408.02,685.62 408.02,1108.66 0,423.04 -153.64,810.14 -408.02,1108.64l0 2270.73z"/>
   <path class="fil1" d="M10065.55 0.06c-5664.73,646.59 -10065.55,5455.98 -10065.55,11293.74 0,2550.44 839.94,4904.83 2258.25,6801.47 -5.24,-95.67 -8.13,-192.04 -8.13,-289.04 0,-2490.41 1748.13,-4572.81 4083.92,-5087.85 -128.4,-453.06 -197.2,-930.93 -197.2,-1424.58 0,-2435.19 1672.66,-4486.83 3928.7,-5067.43l0 -6226.37 0 0.06zm-412.16 22533.58c559.42,84.68 1132.16,128.76 1715.14,128.76 6278.51,0 11368.54,-5090.02 11368.54,-11368.52 0,-3027.01 -1183.46,-5777.51 -3112.47,-7814.77l-6953.57 -0.39 0 2747.58c2256.8,580.3 3929.22,2632.09 3929.22,5067.58 -0.37,2435.03 -1672.78,4487.06 -3929.22,5067.52l0 1446.38c-0.71,2093.34 -1236.36,3898.1 -3017.66,4725.93l0.03 -0.06z"/>
  </g>
  <path class="fil2" d="M34789.74 3352.01c172.89,0 318.27,78.62 436.16,235.84 117.88,157.22 176.82,351.14 176.82,581.73l0 10644.18c0,230.59 -60.89,424.51 -182.71,581.73 -121.82,157.22 -265.22,235.84 -430.26,235.84 -172.89,0 -318.29,-78.62 -436.16,-235.84 -117.88,-157.22 -176.82,-351.14 -176.82,-581.73l0 -7814.12 -2852.7 7751.22c-133.6,272.53 -310.42,408.79 -530.45,408.79 -259.36,0 -447.95,-162.46 -565.83,-487.39l-2817.33 -7531.11 0 7672.61c0,230.59 -58.95,424.51 -176.82,581.73 -117.88,157.22 -263.28,235.84 -436.16,235.84 -172.91,0 -318.27,-78.62 -436.17,-235.84 -117.87,-157.22 -176.82,-351.14 -176.82,-581.73l0 -10644.18c0,-230.59 58.95,-424.51 176.82,-581.73 117.9,-157.22 263.26,-235.84 436.17,-235.84 235.75,0 416.5,146.75 542.24,440.23l3501.03 9354.92 3406.74 -9354.92c125.73,-293.48 306.48,-440.23 542.24,-440.23zm8169.08 3663.36c180.74,0 326.13,73.36 436.14,220.11 110.02,146.75 165.03,340.66 165.03,581.73l0 7012.27c0,230.59 -55.01,421.89 -165.03,573.87 -110.01,151.99 -255.4,227.98 -436.14,227.98 -172.89,0 -316.31,-75.99 -430.27,-227.98 -113.95,-151.98 -170.92,-343.28 -170.92,-573.87l0 -172.95c-251.48,335.42 -550.12,594.85 -895.89,778.27 -345.79,183.43 -715.14,275.15 -1108.06,275.15 -542.26,0 -1029.49,-157.24 -1461.72,-471.68 -432.22,-314.46 -770.15,-773.03 -1013.77,-1375.72 -243.62,-602.71 -365.43,-1328.57 -365.43,-2177.59l0 -3867.75c0,-230.59 56.99,-421.88 170.93,-573.87 113.95,-151.98 257.36,-227.96 430.26,-227.96 172.89,0 316.31,75.99 430.26,227.96 113.96,151.99 170.93,343.28 170.93,573.87l0 3867.75c0,849.02 170.92,1491.03 512.78,1926.02 341.84,435 795.67,652.49 1361.5,652.49 330.07,0 630.65,-89.09 901.79,-267.29 271.12,-178.18 483.29,-419.26 636.55,-723.23 153.24,-303.97 229.87,-644.63 229.87,-1021.97l0 -4433.76c0,-241.07 56.97,-434.98 170.92,-581.73 113.96,-146.75 257.38,-220.11 430.27,-220.11zm4986.31 -47.17c510.81,0 968.58,110.05 1373.3,330.16 404.72,220.12 724.96,524.09 960.72,911.92 102.16,167.71 153.24,335.42 153.24,503.11 0,178.2 -66.79,340.66 -200.38,487.41 -86.46,83.85 -196.47,125.77 -330.07,125.77 -204.33,0 -389,-99.56 -554.04,-298.72 -196.47,-241.08 -404.72,-411.41 -624.77,-510.99 -220.05,-99.56 -487.25,-149.36 -801.58,-149.36 -361.49,0 -658.16,81.23 -889.99,243.7 -231.83,162.46 -347.75,390.44 -347.75,683.94 0,209.63 39.29,385.2 117.88,526.7 78.59,141.5 227.91,272.52 447.94,393.06 220.05,120.54 538.32,238.47 954.84,353.76 856.59,230.59 1463.67,550.28 1821.25,959.07 357.55,408.79 536.34,938.11 536.34,1587.98 0,482.15 -98.24,919.76 -294.7,1312.84 -196.47,393.06 -485.28,702.27 -866.41,927.62 -381.14,225.36 -838.92,338.03 -1373.31,338.03 -534.38,0 -1037.33,-110.05 -1508.85,-330.17 -471.53,-220.11 -840.89,-508.36 -1108.09,-864.74 -102.15,-136.26 -153.24,-298.72 -153.24,-487.39 0,-251.57 78.6,-455.96 235.76,-613.18 149.32,-146.75 286.84,-220.12 412.58,-220.12 157.18,0 306.49,94.34 447.95,283.01 149.32,220.12 373.29,411.41 671.91,573.87 298.63,162.46 616.91,243.7 954.84,243.7 447.94,0 795.69,-99.56 1043.23,-298.72 247.54,-199.16 371.32,-466.43 371.32,-801.85 0,-324.93 -121.8,-594.83 -365.43,-809.71 -243.62,-214.88 -656.2,-395.69 -1237.74,-542.44 -1508.86,-387.81 -2263.29,-1215.87 -2263.29,-2484.15 0,-513.6 113.95,-948.6 341.84,-1304.98 227.91,-356.38 526.54,-623.65 895.9,-801.85 369.35,-178.18 762.27,-267.27 1178.79,-267.27zm4255.46 864.74c0,-241.08 56.99,-435 170.93,-581.74 113.96,-146.73 257.38,-220.11 430.26,-220.11 180.75,0 326.15,73.37 436.17,220.11 110.01,146.75 165.02,340.66 165.02,581.74l0 6996.53c0,230.59 -55.01,421.89 -165.02,573.87 -110.02,151.99 -255.42,227.98 -436.17,227.98 -172.88,0 -316.3,-75.99 -430.26,-227.98 -113.95,-151.98 -170.93,-343.28 -170.93,-573.87l0 -6996.53zm601.19 -4276.54c212.19,0 394.9,102.19 548.16,306.6 153.24,204.39 229.85,448.09 229.85,731.09 0,283.01 -76.61,526.7 -229.85,731.11 -153.25,204.39 -335.97,306.58 -548.16,306.58 -212.19,0 -394.89,-102.19 -548.14,-306.58 -153.24,-204.4 -229.87,-448.1 -229.87,-731.11 0,-283.01 76.63,-526.7 229.87,-731.09 153.25,-204.4 335.95,-306.6 548.14,-306.6zm5705.4 3411.8c927.31,0 1697.47,471.66 2310.44,1415.02 78.59,115.31 117.88,251.57 117.88,408.79 0,230.59 -86.45,424.51 -259.34,581.73 -78.57,73.37 -168.96,110.07 -271.12,110.07 -180.74,0 -333.99,-94.34 -459.72,-283.01 -196.47,-283.01 -410.63,-490.02 -642.46,-621.04 -231.83,-131.03 -497.05,-196.54 -795.69,-196.54 -605.11,0 -1096.28,269.92 -1473.5,809.72 -377.21,539.81 -565.82,1255.18 -565.82,2146.12 0,566.01 88.41,1071.75 265.22,1517.22 176.83,445.47 424.38,793.99 742.65,1045.55 318.27,251.57 681.74,377.34 1090.4,377.34 534.37,0 966.6,-183.43 1296.67,-550.28 149.32,-146.75 294.7,-220.12 436.16,-220.12 110.01,0 212.19,47.17 306.48,141.5 149.32,167.71 223.98,356.38 223.98,566.01 0,157.22 -47.15,298.72 -141.46,424.51 -565.82,702.27 -1273.1,1053.41 -2121.83,1053.41 -620.85,0 -1178.81,-188.67 -1673.91,-566.01 -495.09,-377.34 -882.13,-898.8 -1161.11,-1564.39 -278.98,-665.59 -418.48,-1407.17 -418.48,-2224.74 0,-838.53 135.56,-1590.6 406.68,-2256.19 271.14,-665.58 650.32,-1184.42 1137.55,-1556.53 487.25,-372.1 1037.35,-558.14 1650.32,-558.14zm11222.18 7515.38c39.29,136.26 58.92,251.56 58.92,345.89 0,220.12 -58.92,408.79 -176.82,566.01 -117.87,157.22 -263.26,235.84 -436.16,235.84 -117.87,0 -229.85,-44.55 -335.95,-133.64 -106.09,-89.09 -182.71,-212.25 -229.87,-369.48l-660.12 -2201.15 -4231.88 0 -671.92 2201.15c-55.01,157.24 -133.6,280.39 -235.76,369.48 -102.16,89.09 -212.19,133.64 -330.05,133.64 -172.89,0 -316.33,-81.23 -430.27,-243.7 -113.95,-162.46 -170.92,-353.76 -170.92,-573.87 0,-104.82 19.64,-225.36 58.93,-361.62l3312.43 -10549.83c117.88,-366.87 310.42,-550.29 577.61,-550.29 282.92,0 475.45,183.43 577.6,550.29l3324.23 10581.28zm-2192.58 -2908.68l-1685.69 -5597.22 -1721.03 5597.22 3406.72 0zm6719.16 -4606.7c605.11,0 1157.19,191.29 1656.2,573.87 499.03,382.57 889.99,906.66 1172.91,1572.25 282.92,665.59 424.38,1407.17 424.38,2224.74 0,817.57 -131.64,1559.15 -394.9,2224.74 -263.26,665.59 -624.75,1187.05 -1084.48,1564.39 -459.73,377.34 -972.52,566.01 -1538.35,566.01 -455.8,0 -880.16,-125.77 -1273.1,-377.34 -392.94,-251.56 -726.93,-602.69 -1001.98,-1053.41l0 4245.09c0,241.08 -55.01,434.98 -165.03,581.73 -110.02,146.75 -255.4,220.12 -436.16,220.12 -172.89,0 -316.31,-73.37 -430.26,-220.12 -113.96,-146.75 -170.93,-340.65 -170.93,-581.73l0 -7169.49c0,-817.57 143.42,-1559.15 430.26,-2224.74 286.85,-665.59 675.86,-1189.68 1167.01,-1572.25 491.17,-382.59 1039.32,-573.87 1644.44,-573.87zm0 7310.97c392.93,0 748.53,-128.4 1066.82,-385.2 318.27,-256.8 569.74,-607.94 754.42,-1053.41 184.69,-445.47 277.02,-945.97 277.02,-1501.51 0,-555.52 -92.33,-1058.65 -277.02,-1509.37 -184.67,-450.71 -436.14,-804.47 -754.42,-1061.27 -318.29,-256.8 -673.9,-385.22 -1066.82,-385.22 -392.94,0 -748.55,128.41 -1066.82,385.22 -318.27,256.8 -567.78,610.55 -748.53,1061.27 -180.75,450.71 -271.12,953.84 -271.12,1509.37 0,555.54 90.37,1056.04 271.12,1501.51 180.75,445.47 430.26,796.61 748.53,1053.41 318.27,256.8 673.88,385.2 1066.82,385.2zm8286.97 -7310.97c605.1,0 1157.19,191.29 1656.2,573.87 499.03,382.57 889.99,906.66 1172.91,1572.25 282.9,665.59 424.36,1407.17 424.36,2224.74 0,817.57 -131.62,1559.15 -394.9,2224.74 -263.26,665.59 -624.75,1187.05 -1084.48,1564.39 -459.73,377.34 -972.52,566.01 -1538.33,566.01 -455.8,0 -880.17,-125.77 -1273.11,-377.34 -392.93,-251.56 -726.92,-602.69 -1001.98,-1053.41l0 4245.09c0,241.08 -55.01,434.98 -165.03,581.73 -110.01,146.75 -255.4,220.12 -436.14,220.12 -172.89,0 -316.33,-73.37 -430.27,-220.12 -113.95,-146.75 -170.92,-340.65 -170.92,-581.73l0 -7169.49c0,-817.57 143.42,-1559.15 430.26,-2224.74 286.84,-665.59 675.84,-1189.68 1167.01,-1572.25 491.17,-382.59 1039.31,-573.87 1644.44,-573.87zm0 7310.97c392.93,0 748.53,-128.4 1066.81,-385.2 318.27,-256.8 569.74,-607.94 754.43,-1053.41 184.69,-445.47 277.02,-945.97 277.02,-1501.51 0,-555.52 -92.33,-1058.65 -277.02,-1509.37 -184.69,-450.71 -436.16,-804.47 -754.43,-1061.27 -318.27,-256.8 -673.88,-385.22 -1066.81,-385.22 -392.94,0 -748.55,128.41 -1066.82,385.22 -318.29,256.8 -567.79,610.55 -748.55,1061.27 -180.75,450.71 -271.11,953.84 -271.11,1509.37 0,555.54 90.35,1056.04 271.11,1501.51 180.75,445.47 430.26,796.61 748.55,1053.41 318.27,256.8 673.88,385.2 1066.82,385.2z"/>
 </g>
</svg>
